<svg width="500" height="500" viewBox="0 0 500 500" fill="none" xmlns="http://www.w3.org/2000/svg">
  <defs>
    <linearGradient id="circleGradient" x1="0%" y1="0%" x2="100%" y2="100%">
      <stop offset="0%" stop-color="#ADFF2F" />
      <stop offset="50%" stop-color="#32CD32" />
      <stop offset="100%" stop-color="#9400D3" />
    </linearGradient>
    <linearGradient id="letterGradient" x1="0%" y1="0%" x2="0%" y2="100%">
      <stop offset="0%" stop-color="#DFFF00" />
      <stop offset="100%" stop-color="#228B22" />
    </linearGradient>
  </defs>

  <circle cx="250" cy="250" r="180" stroke="url(#circleGradient)" stroke-width="15" />
  
  <path d="M190 150H290V190H235V240H285V280H235V350H190V150Z" fill="url(#letterGradient)" />
  
  <path d="M295 140C320 140 350 160 350 190C350 210 320 220 295 200C280 190 285 160 295 140Z" fill="#32CD32" />
  <path d="M295 140Q320 180 350 190" stroke="#ADFF2F" stroke-width="2" fill="none" />
  
  <path d="M360 110L363 117L370 120L363 123L360 130L357 123L350 120L357 117L360 110Z" fill="#FFD700" />
  <path d="M385 135L387 140L392 142L387 144L385 149L383 144L378 142L383 140L385 135Z" fill="#FFD700" opacity="0.8" />
</svg>